<svg width="19" height="18" viewBox="0 0 19 18" fill="none" xmlns="http://www.w3.org/2000/svg">
<path d="M8.84732 15.4853L4.6405 17.697C4.15165 17.954 3.54702 17.766 3.29002 17.2772C3.18768 17.0825 3.15237 16.8596 3.18955 16.6428L3.99298 11.9584C4.04862 11.634 3.94107 11.303 3.70538 11.0733L0.301989 7.75581C-0.0934948 7.37031 -0.101587 6.7372 0.283914 6.34171C0.437423 6.18423 0.638565 6.08174 0.856202 6.05012L5.55958 5.36668C5.88529 5.31935 6.16685 5.11478 6.31251 4.81964L8.41593 0.557657C8.66035 0.0624036 9.25997 -0.140935 9.75523 0.103487C9.95244 0.200817 10.1121 0.360445 10.2094 0.557657L12.3128 4.81964C12.4585 5.11478 12.74 5.31935 13.0657 5.36668L17.7691 6.05012C18.3157 6.12954 18.6943 6.63698 18.6149 7.18352C18.5833 7.40116 18.4808 7.6023 18.3233 7.75581L14.9199 11.0733C14.6843 11.303 14.5767 11.634 14.6323 11.9584L15.4358 16.6428C15.5291 17.1871 15.1635 17.7041 14.6192 17.7975C14.4025 17.8346 14.1795 17.7993 13.9848 17.697L9.778 15.4853C9.48668 15.3322 9.13864 15.3322 8.84732 15.4853Z" fill="#FF6672"/>
</svg>
