<svg width="19" height="18" viewBox="0 0 19 18" fill="none" xmlns="http://www.w3.org/2000/svg">
<path fill-rule="evenodd" clip-rule="evenodd" d="M4.6405 17.697L8.84732 15.4853C9.13864 15.3322 9.48668 15.3322 9.778 15.4853L13.9848 17.697C14.1795 17.7993 14.4025 17.8346 14.6192 17.7975C15.1635 17.7041 15.5291 17.1871 15.4358 16.6428L14.6323 11.9584C14.5767 11.634 14.6843 11.303 14.9199 11.0733L18.3233 7.75581C18.4808 7.6023 18.5833 7.40116 18.6149 7.18352C18.6943 6.63698 18.3157 6.12954 17.7691 6.05012L13.0657 5.36668C12.74 5.31935 12.4585 5.11478 12.3128 4.81964L10.2094 0.557657C10.1121 0.360445 9.95244 0.200817 9.75523 0.103487C9.25997 -0.140935 8.66035 0.0624036 8.41593 0.557657L6.31251 4.81964C6.16685 5.11478 5.88529 5.31935 5.55958 5.36668L0.856202 6.05012C0.638565 6.08174 0.437423 6.18423 0.283914 6.34171C-0.101587 6.7372 -0.0934948 7.37031 0.301989 7.75581L3.70538 11.0733C3.94107 11.303 4.04862 11.634 3.99298 11.9584L3.18955 16.6428C3.15237 16.8596 3.18768 17.0825 3.29002 17.2772C3.54702 17.766 4.15165 17.954 4.6405 17.697ZM13.5239 9.64113C12.8169 10.3303 12.4942 11.3233 12.6611 12.2965L13.122 14.9838L10.7087 13.7151C9.83471 13.2556 8.79061 13.2556 7.91664 13.7151L5.50329 14.9838L5.96419 12.2965C6.13111 11.3233 5.80846 10.3303 5.1014 9.64113L3.14896 7.73796L5.84717 7.34589C6.8243 7.20391 7.669 6.5902 8.10598 5.70477L9.31266 3.25977L10.5193 5.70477C10.9563 6.5902 11.801 7.20391 12.7782 7.34589L15.4764 7.73796L13.5239 9.64113Z" fill="#6FA0F1"/>
</svg>
