<svg width="18" height="18" viewBox="0 0 18 18" fill="none" xmlns="http://www.w3.org/2000/svg">
<path d="M9 1.92031C9.46 1.92031 9.91 2.07393 10.27 2.35238L15.25 5.83485C15.73 6.21891 16 6.7662 16 7.3519V15.1195C16 15.6476 15.55 16.0797 15 16.0797H3C2.45 16.0797 2 15.6476 2 15.1195V7.3519C2 6.7662 2.27 6.20931 2.75 5.83485L7.73 2.35238C8.09 2.07393 8.54 1.92031 9 1.92031ZM9 0C8.1 0 7.2 0.288046 6.46 0.87374L1.48 4.35622C0.54 5.09554 0 6.19011 0 7.3519V15.1195C0 16.7134 1.34 18 3 18H15C16.66 18 18 16.7134 18 15.1195V7.3519C18 6.19011 17.46 5.08593 16.52 4.35622L11.54 0.87374C10.8 0.288046 9.9 0 9 0Z" fill="#54698D"/>
</svg>
