<svg width="16" height="16" viewBox="0 0 16 16" fill="none" xmlns="http://www.w3.org/2000/svg">
<path fill-rule="evenodd" clip-rule="evenodd" d="M11.9999 0.414201L15.5857 3.99999C15.9762 4.39051 15.9762 5.02368 15.5857 5.4142L5.41411 15.5858C5.22657 15.7733 4.97222 15.8787 4.707 15.8787H1.12122C0.568931 15.8787 0.121216 15.4309 0.121216 14.8787L0.121216 11.2929C0.121216 11.0277 0.226573 10.7733 0.414109 10.5858L10.5857 0.414201C10.9762 0.0236763 11.6094 0.0236763 11.9999 0.414201ZM2.12122 11.7071V13.8787H4.29279L9.96434 8.20711L7.79277 6.03554L2.12122 11.7071ZM9.20698 4.62133L11.3786 6.7929L13.4644 4.70709L11.2928 2.53552L9.20698 4.62133Z" fill="#DAB32C"/>
</svg>
