<svg width="16" height="16" viewBox="0 0 16 16" fill="none" xmlns="http://www.w3.org/2000/svg">
<path fill-rule="evenodd" clip-rule="evenodd" d="M12 0.414231L15.5858 4.00002C15.9763 4.39054 15.9763 5.02371 15.5858 5.41423L5.41423 15.5858C5.2267 15.7733 4.97234 15.8787 4.70712 15.8787H1.12134C0.569053 15.8787 0.121338 15.431 0.121338 14.8787L0.121338 11.2929C0.121338 11.0277 0.226695 10.7733 0.414231 10.5858L10.5858 0.414231C10.9763 0.0237068 11.6095 0.0237068 12 0.414231ZM2.12134 11.7071V13.8787H4.29291L9.96447 8.20714L7.79289 6.03557L2.12134 11.7071ZM9.20711 4.62136L11.3787 6.79293L13.4645 4.70712L11.2929 2.53555L9.20711 4.62136Z" fill="#6FA0F1"/>
</svg>
