<svg width="15" height="17" viewBox="0 0 15 17" fill="none" xmlns="http://www.w3.org/2000/svg">
<path fill-rule="evenodd" clip-rule="evenodd" d="M11 1C11 0.447715 10.5523 0 10 0H5C4.44772 0 4 0.447715 4 1C4 1.55228 4.44772 2 5 2L10 2C10.5523 2 11 1.55228 11 1ZM0 5H1V14.0001C1 15.6569 2.34315 17.0001 4 17.0001H11C12.6569 17.0001 14 15.6569 14 14.0001V5H15V3H0V5ZM3 14.0001V5H12V14.0001C12 14.5523 11.5523 15.0001 11 15.0001H4C3.44772 15.0001 3 14.5523 3 14.0001ZM5 13.0001V7.00006H7V13.0001H5ZM8 13.0001V7.00006H10V13.0001H8Z" fill="#FF6672"/>
</svg>
